<svg xmlns:xlink="http://www.w3.org/1999/xlink" width="13.346005635642086" xmlns="http://www.w3.org/2000/svg" id="screenshot" version="1.1" viewBox="-0.27912235696476273 -0.3340665209461804 13.346005635642086 21.5891237507401" height="21.5891237507401" style="-webkit-print-color-adjust: exact;"><g id="shape-9462e607-3a65-11ec-934a-27b3de2ee684"><g id="shape-9462e5e4-3a65-11ec-934a-27b3de2ee684"><g><path d="M60 454 l0 -257 134 5 c108 4 139 8 167 24 83 48 93 177 17 232 -16
12 -16 15 7 49 14 20 25 47 25 60 0 35 -24 85 -54 113 -26 24 -35 25 -162 28
l-134 4 0 -258z m242 159 c24 -21 23 -58 -2 -83 -16 -16 -33 -20 -90 -20 l-70
0 0 60 0 60 72 0 c52 0 76 -4 90 -17z m16 -199 c27 -19 30 -78 5 -106 -13 -15
-31 -18 -100 -18 l-83 0 0 70 0 70 78 0 c54 0 84 -5 100 -16z" transform="translate(0, 0) scale(0.25, 0.25) translate(0.000000,88.000000) scale(0.100000,-0.100000)" fill="#000000" stroke="none"/></g></g></g></svg>