<svg xmlns:xlink="http://www.w3.org/1999/xlink" width="53" xmlns="http://www.w3.org/2000/svg" id="screenshot"
	version="1.1" viewBox="0 0 53 53" height="53" style="-webkit-print-color-adjust: exact;">
	<g id="shape-f5a70b63-521c-11ec-82ab-a3353aea1069">
		<g id="shape-f5a70b5b-521c-11ec-82ab-a3353aea1069">
			<g id="shape-f5a70b59-521c-11ec-82ab-a3353aea1069">
				<path
					d="M19.000000000000682,23L13.999999999999773,22.99999999999909M21.000000000000227,18.99999999999909L19.000000000000227,14.999999999999545M26.000000000000682,16.99999999999909L25.999999999999318,14.99999999999909M30.000000000000682,34.99999999999909L30.000000000000227,37.99999999999909M32.00000000000068,32.999999999999545L37.00000000000023,32.999999999999545M34.99999999999977,28.999999999999545L39.00000000000068,25.999999999999545"
					style="fill: none; stroke-width: 2; stroke: rgb(0, 0, 0); stroke-opacity: 1;" />
			</g>
			<g id="shape-f5a70b51-521c-11ec-82ab-a3353aea1069">
				<path
					d="M21.33922915463131,26.181033542847217L18.753794626376248,28.771282682165292C18.753794626376248,28.771282682165292,16.16836009060148,31.36153182901853,18.75860922238394,33.946966349752984C21.348858354167305,36.532400870486526,23.93429288994298,33.94215172363511,23.93429288994298,33.94215172363511L26.519727418198045,31.351902584315212"
					style="fill: none; stroke-width: 2; stroke: rgb(0, 0, 0); stroke-opacity: 1;" />
			</g>
			<g id="shape-f5a70b5d-521c-11ec-82ab-a3353aea1069">
				<path
					d="M25.863739671406847,21.648097510223124L28.44917421470359,19.057848355835176C28.44917421470359,19.057848355835176,31.034608757999877,16.467599201446774,33.624857876362285,19.053033708785733C36.21510699472469,21.63846821612333,33.62967245142795,24.228717370511276,33.62967245142795,24.228717370511276L31.044237908132118,26.818966524898315"
					style="fill: none; stroke-width: 2; stroke: rgb(0, 0, 0); stroke-opacity: 1;" />
			</g>
			<g id="shape-f5a70b64-521c-11ec-82ab-a3353aea1069">
				<path d="M21.990402358841266,30.70915490430434L30.393064536979864,22.290845082053238"
					style="fill: none; stroke-width: 2; stroke: rgb(0, 0, 0); stroke-opacity: 1;" />
			</g>
		</g>
	</g>
</svg>
