<svg xmlns:xlink="http://www.w3.org/1999/xlink" width="168.24263756297987" xmlns="http://www.w3.org/2000/svg" id="screenshot" version="1.1" viewBox="-2.1213228393805648 -1.9471997625570734 168.24263756297987 168.24263756297992" height="168.24263756297992" style="-webkit-print-color-adjust: exact;"><g id="shape-e30fe900-3807-11ec-96be-8543053ce41a"><g id="shape-d0c54b00-3807-11ec-96be-8543053ce41a"><rect rx="0" ry="0" x="0" y="0" transform="matrix(0.9999999992430525,0,3.308722447707583e-24,-0.9999999992430529,6.206970226685371e-8,163.99999993793034)" width="164" height="164" style="fill: rgb(177, 178, 181); fill-opacity: 0;"/></g><g id="shape-c1ed3e80-3807-11ec-96be-8543053ce41a"><g id="shape-c1ed3e81-3807-11ec-96be-8543053ce41a"><ellipse cx="34.5" cy="115.5" rx="25.5" ry="25.5" transform="matrix(0.9999999981595514,6.617444902031509e-24,3.308722451015723e-24,0.9999999981595441,6.349547732042993e-8,2.1257265814256243e-7)" style="fill: rgb(229, 124, 8); fill-opacity: 1; stroke-width: 7; stroke: rgb(229, 124, 8); stroke-opacity: 1;"/></g><g id="shape-c1ed3e82-3807-11ec-96be-8543053ce41a"><ellipse cx="129.5" cy="115.5" rx="25.5" ry="25.5" transform="matrix(0.999999998159552,0,0,0.9999999981595441,2.3833803197703674e-7,2.1257265814256243e-7)" style="fill: none; stroke-width: 7; stroke: rgb(0, 0, 0); stroke-opacity: 1;"/></g><g id="shape-c1ed3e83-3807-11ec-96be-8543053ce41a"><path d="M34.08181036123574,80.57684540811431L34.081810370228254,64.60411668751135L129.9181826659683,64.60411663175603" style="fill: none; stroke-width: 7; stroke: rgb(0, 0, 0); stroke-opacity: 1;"/></g><g id="shape-c1ed3e84-3807-11ec-96be-8543053ce41a"><path d="M72.41635929517895,35.85320499042615L72.41635929517895,118.91139433756132C72.41635929517895,118.91139433756132,72.41635929517895,131.68957731404362,94.77817950402334,131.68957731404362" style="fill: none; stroke-width: 7; stroke: rgb(0, 0, 0); stroke-opacity: 1;"/></g><g id="shape-c1ed3e85-3807-11ec-96be-8543053ce41a"><path d="M93.18090663196267,118.91139433756132L93.18090663196267,35.85320499042609C93.18090663196267,35.85320499042609,93.18090663196267,23.07502201394385,115.54272684080672,23.07502201394385" style="fill: none; stroke-width: 7; stroke: rgb(0, 0, 0); stroke-opacity: 1;"/></g></g></g></svg>
